HIERARCHY
ROOT joint_Root
{
	OFFSET 0.0 0.0 0.0
	CHANNELS 6 Xposition Yposition Zposition Zrotation Xrotation Yrotation 
	JOINT Hips
	{
		OFFSET 4.5925 91.4895 -427.239
		CHANNELS 6 Xposition Yposition Zposition Zrotation Xrotation Yrotation 
		JOINT Spine
		{
			OFFSET 15.7357 0.0 0.0
			CHANNELS 6 Xposition Yposition Zposition Zrotation Xrotation Yrotation 
			JOINT Chest
			{
				OFFSET 8.98455 -0.406207 0.0
				CHANNELS 6 Xposition Yposition Zposition Zrotation Xrotation Yrotation 
				JOINT Neck
				{
					OFFSET 16.3773 0.0 0.0
					CHANNELS 6 Xposition Yposition Zposition Zrotation Xrotation Yrotation 
					JOINT Head
					{
						OFFSET 6.45672 0.0 0.0
						CHANNELS 6 Xposition Yposition Zposition Zrotation Xrotation Yrotation 
						End Site
						{
							OFFSET 0.0 0.0 0.0
						}
					}
				}
				JOINT Shoulder_L
				{
					OFFSET 12.9942 -0.242716 4.98039
					CHANNELS 6 Xposition Yposition Zposition Zrotation Xrotation Yrotation 
					JOINT UpperArm_L
					{
						OFFSET 5.34809 0.0 0.0
						CHANNELS 6 Xposition Yposition Zposition Zrotation Xrotation Yrotation 
						JOINT LowerArm_L
						{
							OFFSET 24.3286 1.87007e-05 0.0
							CHANNELS 6 Xposition Yposition Zposition Zrotation Xrotation Yrotation 
							JOINT Hand_L
							{
								OFFSET 22.2916 0.0 0.0
								CHANNELS 6 Xposition Yposition Zposition Zrotation Xrotation Yrotation 
								End Site
								{
									OFFSET 0.0 0.0 0.0
								}
							}
						}
					}
				}
				JOINT Shoulder_R
				{
					OFFSET 12.9945 -0.242716 -4.98039
					CHANNELS 6 Xposition Yposition Zposition Zrotation Xrotation Yrotation 
					JOINT UpperArm_R
					{
						OFFSET -5.34813 0.0 0.0
						CHANNELS 6 Xposition Yposition Zposition Zrotation Xrotation Yrotation 
						JOINT LowerArm_R
						{
							OFFSET -24.3289 0.000322201 0.0
							CHANNELS 6 Xposition Yposition Zposition Zrotation Xrotation Yrotation 
							JOINT Hand_R
							{
								OFFSET -22.2915 -0.000108084 0.0
								CHANNELS 6 Xposition Yposition Zposition Zrotation Xrotation Yrotation 
								End Site
								{
									OFFSET 0.0 0.0 0.0
								}
							}
						}
					}
				}
			}
		}
		JOINT UpperLeg_L
		{
			OFFSET -2.19248 -6.46944 0.0
			CHANNELS 6 Xposition Yposition Zposition Zrotation Xrotation Yrotation 
			JOINT LowerLeg_L
			{
				OFFSET 39.0811 0.0 -1.23785e-05
				CHANNELS 6 Xposition Yposition Zposition Zrotation Xrotation Yrotation 
				JOINT Foot_L
				{
					OFFSET 40.9854 0.0 -1.26872e-05
					CHANNELS 6 Xposition Yposition Zposition Zrotation Xrotation Yrotation 
					JOINT Toes_L
					{
						OFFSET 11.7543 0.0 0.0
						CHANNELS 6 Xposition Yposition Zposition Zrotation Xrotation Yrotation 
						End Site
						{
							OFFSET 0.0 0.0 0.0
						}
					}
				}
			}
		}
		JOINT UpperLeg_R
		{
			OFFSET -2.19251 6.46944 0.0
			CHANNELS 6 Xposition Yposition Zposition Zrotation Xrotation Yrotation 
			JOINT LowerLeg_R
			{
				OFFSET -39.0811 -0.00228153 -0.0401928
				CHANNELS 6 Xposition Yposition Zposition Zrotation Xrotation Yrotation 
				JOINT Foot_R
				{
					OFFSET -40.9854 0.0 0.0
					CHANNELS 6 Xposition Yposition Zposition Zrotation Xrotation Yrotation 
					JOINT Toes_R
					{
						OFFSET -11.7543 0.0 0.0
						CHANNELS 6 Xposition Yposition Zposition Zrotation Xrotation Yrotation 
						End Site
						{
							OFFSET 0.0 0.0 0.0
						}
					}
				}
			}
		}
	}
}
MOTION
Frames:	4
Frame Time:	0.0333333
0.000000 0.000000 0.000000 0.000000 0.000000 -0.000000 -0.852245 80.534000 0.979499 87.783700 -4.322520 11.115700 15.735700 0.000005 -0.000001 89.202400 79.093100 -89.187400 8.984550 -0.406207 -0.000000 14.045900 -0.299338 0.066710 16.377300 -0.000001 -0.000001 -5.600010 -2.557720 0.549512 6.456720 -0.000001 -0.000000 -8.363200 -2.892590 2.902580 12.994200 -0.242716 4.980390 -91.540800 4.542050 -71.239000 5.348090 -0.000007 -0.000001 -67.435500 14.252600 -16.400500 24.328600 0.000019 0.000005 7.347370 19.147600 -21.457700 22.291600 -0.000001 0.000005 11.006000 5.128770 4.450000 12.994500 -0.242716 -4.980390 88.275900 9.216560 -79.356100 -5.348130 -0.000001 -0.000004 -65.747400 11.622700 -18.102800 -24.328900 0.000322 -0.000009 -2.430150 -9.974430 -13.763400 -22.291500 -0.000108 -0.000004 7.276970 5.255770 1.299730 -2.192480 -6.469440 -0.000000 -173.278000 -9.474050 -15.981700 39.081100 -0.000007 -0.000012 -0.679033 0.291984 66.733800 40.985400 -0.000006 -0.000013 -0.842953 0.829321 -89.309600 11.754300 -0.000000 0.000003 -0.000559 -0.004366 -16.736400 -2.192510 6.469440 -0.000001 179.199000 10.013100 163.455000 -39.081100 -0.002282 -0.040193 0.087722 -0.036614 66.590400 -40.985400 0.000008 0.000006 7.637190 2.357190 -87.986200 -11.754300 -0.000006 -0.000006 -0.773798 -0.947762 -17.469000
0.000000 0.000000 0.000000 0.000000 0.000000 -0.000000 -0.873817 82.395400 1.881790 88.124500 -3.935620 10.850800 15.735700 0.000005 -0.000001 88.528300 80.300800 -88.634100 8.984550 -0.406207 -0.000000 11.625900 -0.497650 -0.160858 16.377300 -0.000001 -0.000001 -4.105950 -2.301870 0.421499 6.456720 -0.000001 -0.000000 -6.967210 -2.291410 2.784990 12.994200 -0.242716 4.980390 -91.083700 3.065450 -70.518200 5.348090 -0.000007 -0.000001 -65.605900 -4.380270 -17.859000 24.328600 0.000019 0.000005 6.655170 21.416300 -17.722500 22.291600 -0.000001 0.000005 10.820500 5.095980 5.200690 12.994500 -0.242716 -4.980390 88.221300 8.181610 -77.689100 -5.348130 -0.000001 -0.000004 -62.369400 -1.799770 -20.536900 -24.328900 0.000322 -0.000009 -1.387820 -8.933710 -8.857800 -22.291500 -0.000108 -0.000004 3.415230 5.173790 3.369720 -2.192480 -6.469440 -0.000000 -173.771000 -9.048910 -13.026700 39.081100 -0.000007 -0.000012 -0.623114 0.340120 61.374000 40.985400 -0.000006 -0.000013 -0.961892 0.738740 -87.241100 11.754300 -0.000000 0.000003 -0.000482 -0.003866 -16.719100 -2.192510 6.469440 -0.000001 178.650000 10.352000 166.400000 -39.081100 -0.002282 -0.040193 0.079750 -0.041552 61.509100 -40.985400 0.000008 0.000006 7.460120 2.805250 -85.958700 -11.754300 -0.000006 -0.000006 -0.799711 -0.977466 -17.639700
0.000000 0.000000 0.000000 0.000000 0.000000 -0.000000 -0.878934 84.937000 2.952550 88.514500 -3.562420 10.337600 15.735700 0.000005 -0.000001 86.926200 81.856900 -87.178600 8.984550 -0.406207 -0.000000 8.495540 -0.870749 -0.439576 16.377300 -0.000001 -0.000001 -1.800040 -2.286490 0.586975 6.456720 -0.000001 -0.000000 -5.473500 -1.809530 2.822400 12.994200 -0.242716 4.980390 -90.348800 0.964931 -70.123300 5.348090 -0.000007 -0.000001 -57.703700 -16.598600 -20.314000 24.328600 0.000019 0.000005 5.184230 20.268300 -14.676300 22.291600 -0.000001 0.000005 14.264100 5.020910 6.869020 12.994500 -0.242716 -4.980390 88.352800 6.609050 -75.969900 -5.348130 -0.000001 -0.000004 -56.797900 -14.788700 -25.262000 -24.328900 0.000322 -0.000009 -0.984567 -9.172480 -6.148030 -22.291500 -0.000108 -0.000004 5.928780 5.144760 4.065230 -2.192480 -6.469440 -0.000000 -174.118000 -9.395940 -8.873450 39.081100 -0.000007 -0.000012 -0.505339 0.376088 53.343500 40.985400 -0.000006 -0.000013 -0.749915 1.343920 -83.895200 11.754300 -0.000000 0.000003 -0.000404 -0.003336 -16.700500 -2.192510 6.469440 -0.000001 178.084000 10.570300 170.388000 -39.081100 -0.002282 -0.040193 0.064310 -0.044522 53.910400 -40.985400 0.000008 0.000006 6.983930 3.529290 -82.589400 -11.754300 -0.000006 -0.000006 -0.859246 -1.046530 -17.893300
0.000000 0.000000 0.000000 0.000000 0.000000 -0.000000 -0.798636 87.404700 3.894750 88.991000 -3.208940 8.833140 15.735700 0.000005 -0.000001 83.406700 83.811500 -83.841200 8.984550 -0.406207 -0.000000 4.525010 -1.406380 -0.812442 16.377300 -0.000001 -0.000001 0.928934 -2.390070 0.971057 6.456720 -0.000001 -0.000000 -4.255540 -1.786530 3.130180 12.994200 -0.242716 4.980390 -89.376700 -1.718220 -70.058900 5.348090 -0.000007 -0.000001 -49.718900 -31.581200 -23.243100 24.328600 0.000019 0.000005 4.955540 18.812000 -15.051000 22.291600 -0.000001 0.000005 13.483900 4.962110 8.115780 12.994500 -0.242716 -4.980390 88.772000 4.542380 -74.853300 -5.348130 -0.000001 -0.000004 -51.038600 -27.071400 -32.804600 -24.328900 0.000322 -0.000009 -1.069430 -10.922900 -5.620360 -22.291500 -0.000108 -0.000004 8.917370 5.124850 4.538890 -2.192480 -6.469440 -0.000000 -174.702000 -10.201300 -5.359030 39.081100 -0.000007 -0.000012 -0.380365 0.389440 44.325400 40.985400 -0.000006 -0.000013 -0.469956 2.188790 -79.913800 11.754300 -0.000000 0.000003 -0.000268 -0.002371 -16.666200 -2.192510 6.469440 -0.000001 177.499000 11.159500 173.505000 -39.081100 -0.002282 -0.040193 0.048673 -0.044312 45.701700 -40.985400 0.000008 0.000006 6.615050 4.606230 -78.510700 -11.754300 -0.000006 -0.000006 -0.907232 -1.096050 -18.425200
